<?xml version="1.0" encoding="utf-8"?>
<!-- Generator: Adobe Illustrator 25.2.1, SVG Export Plug-In . SVG Version: 6.00 Build 0)  -->
<svg version="1.1" xmlns="http://www.w3.org/2000/svg" xmlns:xlink="http://www.w3.org/1999/xlink" x="0px" y="0px"
	 viewBox="0 0 438.6 110.3" style="enable-background:new 0 0 438.6 110.3;" xml:space="preserve">
<style type="text/css">
	.st0{fill:#53217C;}
	.st1{fill:#AA0C23;}
	.st2{fill:#EB5B64;}
	.st3{fill:#FFFFFF;}
</style>
<g id="SBH_x5F_rz">
	<path class="st0" d="M13.8,89.2l6.5-10.5c0,0,10.4,6.3,19.7,6.4c5,0.1,9.5-1.6,11.4-6c1.9-4.4,2.7-11.8-14.2-16.7
		c-11.2-3.2-17.3-8-20.5-14.9c-2.8-5.6-2.4-12.2,0-18.1c0,0,3.1-8.9,14.4-12.3c12.2-3.7,26.9,2.6,38.4,9.7l2.5-4
		C51.4,9.2,23,4.9,12.5,27.7C5.3,46,14.9,60.9,36,66.8c4.2,1.3,13,3.8,11.4,10c-2.6,8-20.7,0.9-26.8-3.3l-1.9-1.2L7.3,90.7
		c0,0,13.8,11.2,33.2,11.3c14.4,0.1,23.1-8.5,26.6-16.3c6.7-16.3-1-32.6-23.1-38.9c-2.9-0.9-7.1-2.6-9.5-4c-3.4-2.1-5-9.6,4.4-9.7
		c5.6,0,13.6,2.8,19.9,6.9l1.9,1.2l7-11.1C65,27,31.2,8.6,20.3,30.8c-2.1,4-2.3,10.6-0.1,15c2.7,5.8,8.9,10.1,18.3,12.9
		c4.8,1.5,8.9,3.3,11.4,4.8c6.7,3.6,8,11.7,4.6,18c-7,11.1-19.4,7.4-32.6,2.3l-2.2,3.8l-0.1,0.3c16.4,8.8,40.7,8.9,41.4-13.7
		C61.3,60.4,47.7,57,39.8,54.2c-8.2-2.5-13.2-5.8-15.3-10.3c-3.5-7.8,0.1-16,8.3-18.6c6.4-2.4,19.2,0.6,28.6,6.2l-2.1,3.2
		c-8.4-4.1-17.4-7.6-24.7-5.8c-9.4,2.4-8.1,11-6.8,13.4c3.1,5.4,10.2,7.3,12.5,8.1c5.2,1.7,8.3,2.9,11.8,4.6
		c7.8,4.5,12.7,10.7,12.7,19.3c-0.2,4.6-2.1,22.5-24.8,23C28.9,97.5,13.8,89.2,13.8,89.2z"/>
	<path class="st1" d="M89.3,63.4v30h32.5c13,0,18.6-10.9,18.6-18.6c0-13.8-9.7-17.7-9.7-17.7c12-6.1,12.7-27.5,0.6-34.3
		c-2.7-1.6-6-2.3-9.5-2.3H98.2v4.7h23.5c4.3,0,9,2.7,11.6,7.1c5.1,9.6-0.8,22.9-11.9,22.5c0,0-31.9,0-31.9,0v4.7h31.9
		c8.7,0,14.3,5.9,14.3,15.4c0,6.5-4.9,13.8-13.9,13.8H93.8V68.2h26c4.5,0,6.8,2.1,6.8,6.1c0,4.1-2.2,6.2-6.8,6.2h-17V72h-4.7v13.2
		h21.7c10.8,0,11.4-8.8,11.4-10.9c0-6.7-4.5-10.9-11.4-10.9H89.3z M143.7,57.1c3-4.5,4.5-10.2,4.5-16.8c0-18-10.6-28.2-29-28.2h-30
		V51h30.5c6.9,0,11-3.9,11-10.7c0.1-6.2-4.5-11.7-11-11.5c0,0-21.7,0-21.7,0v13.6h4.7v-9.1h17c3.8,0,6.4,2.5,6.4,7
		c0,4-2.1,6.1-6.4,6.1h-26V16.7h24.8c12.6-0.2,23.9,6.2,24.9,19.4c1.1,15.8-5.8,21.1-5.8,21.1s7.4,4.7,6.4,18
		c-1.1,15.6-10,21.9-25.5,22H85.1V11.9h-4.7v89.9h38.2c18.8,0,30.3-10.3,30.3-27.9C148.9,67.2,147.2,61.6,143.7,57.1"/>
	<polygon class="st2" points="229.4,11.9 229.4,97.2 216.4,97.2 216.4,63.5 176.9,63.5 176.9,97.2 172,97.2 172,59.1 220.6,59.1 
		220.6,94 225.2,94 225.2,11.9 211.3,11.9 211.3,45.6 181,45.6 181,11.9 158.6,11.9 158.6,101.9 163.2,101.9 163.2,16.7 176.2,16.7 
		176.2,50.4 215.8,50.4 215.8,16.7 220.6,16.7 220.6,54.6 172,54.6 172,20 167.3,20 167.3,102 181.4,102 181.4,68.3 211.7,68.3 
		211.7,101.9 234.1,101.9 234.1,11.9 	"/>
</g>
<g id="Zusatz_x5F_rz_x5F_Schrift">
	<rect x="246.2" y="11.9" class="st0" width="180.5" height="28.3"/>
	<g>
		<path class="st3" d="M255.1,29.6c0.7,1.1,1.7,1.6,3.3,1.6c1.6,0,2.4-0.6,2.4-1.8c0-0.6-0.2-1.1-0.6-1.4c-0.4-0.3-0.4-0.3-2.6-0.8
			c-3.2-0.8-4.4-2.1-4.4-4.7c0-2.9,1.9-4.6,5.2-4.6c2.5,0,4.1,0.8,5.1,2.5l-2.4,1.6c-0.7-1-1.5-1.4-2.7-1.4c-1.2,0-2,0.6-2,1.7
			c0,1.2,0.6,1.7,2.9,2.3c2,0.5,2.4,0.7,3.2,1.2c1,0.7,1.5,1.8,1.5,3.5c0,1.6-0.4,2.7-1.3,3.4c-0.9,0.8-2.4,1.3-4.3,1.3
			c-1.7,0-3.2-0.4-4.3-1c-0.7-0.4-1.1-0.9-1.5-1.7L255.1,29.6z"/>
		<path class="st3" d="M278.1,29.5c-0.1,1.4-0.4,2.2-1.1,3c-0.9,1-2.4,1.5-4.4,1.5c-2.2,0-3.6-0.6-4.6-1.9c-0.7-1-1-2.2-1-4.4v-3.4
			c0-2.4,0.3-3.6,1.2-4.7c1-1.1,2.3-1.6,4.4-1.6c3.5,0,5.1,1.5,5.3,4.6l-3,0.2c-0.2-1.5-0.9-2.1-2.2-2.1c-1.8,0-2.3,0.9-2.3,3.8v2.9
			c0,2.9,0.6,3.8,2.3,3.8c1.5,0,2.2-0.7,2.4-2.1L278.1,29.5z"/>
		<path class="st3" d="M281.7,18.2h3.3v6.3h4.5v-6.3h3.3v15.5h-3.3v-6.5H285v6.5h-3.3V18.2z"/>
		<path class="st3" d="M296,18.2h3.3l2.3,11l2.8-11h2.6l2.8,11l2.3-11h3.3l-3.9,15.5h-3l-2.7-10.2l-2.7,10.2h-3L296,18.2z"/>
		<path class="st3" d="M320.2,30.8l-0.9,2.9h-3.6l5.5-15.5h3.2l5.6,15.5h-3.6l-0.9-2.9H320.2z M322.9,22.1l-1.9,6h3.8L322.9,22.1z"
			/>
		<path class="st3" d="M335.6,33.7h-3.3V18.2h5.8c2.1,0,3.2,0.3,4,1.1c0.8,0.8,1.1,1.8,1.1,3.4c0,2.7-0.8,3.9-2.8,4.5l3.3,6.4h-3.6
			l-2.9-6.2h-1.6V33.7z M337.8,24.9c1.5,0,2.1-0.6,2.1-2.1c0-1.5-0.6-2.1-2.1-2.1h-2.3v4.1H337.8z"/>
		<path class="st3" d="M347,31.5l6.1-10.6h-5.8v-2.7h9.5v2.2l-6.1,10.6h6.4v2.7H347V31.5z"/>
		<path class="st3" d="M359.6,18.2h3.3l2.3,11l2.8-11h2.6l2.8,11l2.3-11h3.3L375,33.7h-3l-2.7-10.2l-2.7,10.2h-3L359.6,18.2z"/>
		<path class="st3" d="M383.4,30.8l-0.9,2.9h-3.6l5.5-15.5h3.2l5.6,15.5h-3.6l-0.9-2.9H383.4z M386.1,22.1l-1.9,6h3.8L386.1,22.1z"
			/>
		<path class="st3" d="M395.5,18.2h3.3v12.8h6.5v2.7h-9.8V18.2z"/>
		<path class="st3" d="M408.3,18.2h5.3c4.1-0.1,6,1.9,5.9,6v3.4c0.1,4.2-1.8,6.1-5.9,6h-5.3V18.2z M413,31c2.5,0,3.2-0.7,3.2-3.7
			v-2.9c0-2.9-0.7-3.7-3.2-3.7h-1.4V31H413z"/>
	</g>
	<rect x="246.2" y="42.6" class="st1" width="70.1" height="28.3"/>
	<g>
		<path class="st3" d="M253.2,49h6c1.9,0,2.8,0.3,3.6,0.9c0.8,0.7,1.2,1.8,1.2,3.2c0,1.5-0.4,2.4-1.3,3.1c0.6,0.5,0.8,0.7,0.9,1
			c0.4,0.6,0.6,1.6,0.6,2.7c0,1.6-0.5,2.8-1.4,3.5c-0.8,0.6-1.7,0.8-3.4,0.8h-6.3V49z M259,55.2c1.3,0,1.8-0.5,1.8-1.8
			c0-1.3-0.5-1.8-1.8-1.8h-2.5v3.6H259z M259.3,61.7c1.3,0,1.8-0.6,1.8-1.9c0-1.4-0.5-1.9-1.8-1.9h-2.8v3.9H259.3z"/>
		<path class="st3" d="M270,61.4l-0.9,2.9h-3.6l5.5-15.3h3.2l5.6,15.3h-3.6l-0.9-2.9H270z M272.7,52.8l-1.9,6h3.8L272.7,52.8z"/>
		<path class="st3" d="M286.2,61.4l-0.9,2.9h-3.6l5.5-15.3h3.2l5.6,15.3h-3.6l-0.9-2.9H286.2z M288.9,52.8l-1.9,6h3.8L288.9,52.8z"
			/>
		<path class="st3" d="M301.6,64.3h-3.3V49h5.8c2.1,0,3.2,0.3,4,1.1c0.8,0.8,1.1,1.8,1.1,3.4c0,2.6-0.8,3.9-2.8,4.5l3.3,6.3h-3.6
			l-2.9-6.1h-1.6V64.3z M303.8,55.7c1.5,0,2.1-0.6,2.1-2c0-1.5-0.6-2-2.1-2h-2.3v4.1H303.8z"/>
	</g>
	<rect x="246.2" y="73.6" class="st2" width="111.4" height="28.3"/>
	<g>
		<g>
			<path class="st3" d="M253.2,80.1h3.3v6.2h4.5v-6.2h3.3v15.3H261V89h-4.5v6.4h-3.3V80.1z"/>
			<path class="st3" d="M268.4,80.1h9.7v2.7h-6.4v3.6h5.4V89h-5.4v3.7h6.5v2.7h-9.8V80.1z"/>
			<path class="st3" d="M285,80.1v9.6c0,1.2,0.1,1.8,0.3,2.3c0.4,0.7,0.9,1,2,1c1.2,0,1.8-0.3,2.1-1.2c0.2-0.5,0.3-1.1,0.3-2.1v-9.6
				h3.3v9.6c0,2.3-0.2,3.3-0.9,4.2c-1,1.2-2.4,1.8-4.7,1.8c-2.5,0-4-0.6-4.9-2c-0.6-0.9-0.8-1.8-0.8-3.9v-9.6H285z"/>
			<path class="st3" d="M297,80.1h6c1.9,0,2.8,0.3,3.6,0.9c0.8,0.7,1.2,1.8,1.2,3.2c0,1.5-0.4,2.4-1.3,3.1c0.6,0.5,0.8,0.7,0.9,1
				c0.4,0.6,0.6,1.6,0.6,2.7c0,1.6-0.5,2.8-1.4,3.5c-0.8,0.6-1.7,0.8-3.4,0.8H297V80.1z M302.8,86.3c1.3,0,1.8-0.5,1.8-1.8
				c0-1.3-0.5-1.8-1.8-1.8h-2.5v3.6H302.8z M303.1,92.8c1.3,0,1.8-0.6,1.8-1.9c0-1.4-0.5-1.9-1.8-1.9h-2.8v3.9H303.1z"/>
			<path class="st3" d="M311.7,80.1h9.7v2.7h-6.4v3.6h5.4V89h-5.4v3.7h6.5v2.7h-9.8V80.1z"/>
			<path class="st3" d="M328.1,95.4h-3.3V80.1h5.8c2.1,0,3.2,0.3,4,1.1c0.8,0.8,1.1,1.8,1.1,3.4c0,2.6-0.8,3.9-2.8,4.5l3.3,6.3h-3.6
				l-2.9-6.1h-1.6V95.4z M330.3,86.8c1.5,0,2.1-0.6,2.1-2c0-1.5-0.6-2-2.1-2H328v4.1H330.3z"/>
			<path class="st3" d="M344.9,86.8h5.6v2.6c0,2.3-0.3,3.3-1.1,4.4c-1,1.3-2.4,1.8-4.8,1.8c-2.3,0-3.7-0.6-4.7-1.8
				c-0.8-1-1-2.2-1-4.4v-3.3c0-2.4,0.3-3.6,1.3-4.6c1-1.1,2.3-1.6,4.4-1.6c3.6,0,5.3,1.5,5.4,4.5l-3,0.2c-0.2-1.4-0.9-2.1-2.4-2.1
				c-1.8,0-2.4,0.9-2.4,3.8v2.8c0,2.9,0.6,3.8,2.5,3.8c1.8,0,2.5-0.8,2.5-2.8v-0.9h-2.3V86.8z"/>
		</g>
	</g>
</g>
</svg>
