<?xml version="1.0" encoding="utf-8"?>
<!-- Generator: Adobe Illustrator 28.2.0, SVG Export Plug-In . SVG Version: 6.00 Build 0)  -->
<svg version="1.1" id="Ebene_1" xmlns="http://www.w3.org/2000/svg" xmlns:xlink="http://www.w3.org/1999/xlink" x="0px" y="0px"
	 viewBox="0 0 283.9 102" style="enable-background:new 0 0 283.9 102;" xml:space="preserve">
<style type="text/css">
	.st0{fill:#707173;}
	.st1{fill:#00844D;}
</style>
<g>
	<g>
		<path class="st0" d="M0.4,9.9h1.4v4.7h3.8V9.9H7v10.9H5.6v-5H1.8v5H0.4V9.9z"/>
		<path class="st0" d="M10.5,16.8v-3.6c0-1.1,0.3-2,0.9-2.6c0.6-0.6,1.4-0.9,2.6-0.9c1.1,0,2,0.3,2.6,0.9c0.6,0.6,0.9,1.5,0.9,2.6
			v3.6c0,1.4-0.3,2.5-0.8,3.1c-0.5,0.7-1.4,1-2.6,1c-1.2,0-2.1-0.3-2.7-1C10.7,19.2,10.5,18.2,10.5,16.8z M11.9,13.2v3.7
			c0,1,0.1,1.7,0.4,2.2c0.3,0.5,0.8,0.7,1.6,0.7c0.7,0,1.2-0.2,1.5-0.6c0.3-0.4,0.5-1.2,0.5-2.3v-3.7c0-0.8-0.2-1.3-0.5-1.7
			c-0.4-0.4-0.8-0.6-1.5-0.6C12.5,10.8,11.9,11.6,11.9,13.2z"/>
		<path class="st0" d="M25.7,17.5h1.4c0,1.2-0.3,2-0.8,2.6C25.8,20.7,25,21,23.9,21c-1.1,0-1.9-0.3-2.5-0.9
			c-0.6-0.6-0.9-1.7-0.9-3.3v-3.2c0-2.6,1.1-3.9,3.4-3.9c2,0,2.9,0.8,2.9,2.5l0,0.7h-1.4l0-0.4c0-1.1-0.5-1.6-1.6-1.6
			c-0.6,0-1,0.2-1.4,0.6c-0.4,0.4-0.5,1.2-0.5,2.4V17c0,1,0.1,1.7,0.4,2.1c0.3,0.5,0.8,0.7,1.5,0.7c0.5,0,1-0.2,1.3-0.6
			C25.5,18.8,25.7,18.2,25.7,17.5z"/>
	</g>
	<g>
		<path class="st0" d="M30.2,9.9h1.4v4.7h3.8V9.9h1.4v10.9h-1.4v-5h-3.8v5h-1.4V9.9z"/>
	</g>
	<g>
		<path class="st0" d="M40,17.5l1.4,0l0,0.4c0,0.6,0.2,1,0.5,1.3c0.3,0.3,0.8,0.5,1.4,0.5c0.5,0,1-0.1,1.3-0.4
			c0.3-0.3,0.5-0.7,0.5-1.3c0-0.5-0.2-0.8-0.5-1.2c-0.3-0.3-0.9-0.7-1.8-1.1c-1-0.5-1.7-1-2.1-1.5c-0.4-0.5-0.5-1-0.5-1.7
			c0-0.9,0.3-1.6,0.8-2.1c0.6-0.5,1.4-0.8,2.4-0.8c1,0,1.8,0.2,2.3,0.7c0.5,0.5,0.8,1.2,0.8,2l0,0.4l-1.4,0h0c0-1.3-0.6-2-1.7-2
			c-0.5,0-1,0.1-1.3,0.4c-0.3,0.3-0.5,0.7-0.5,1.1c0,0.5,0.2,1,0.7,1.3c0.3,0.2,0.9,0.6,1.7,1c0.9,0.4,1.5,0.9,1.9,1.3
			c0.4,0.5,0.7,1.1,0.7,1.9c0,2-1.2,3-3.5,3c-1,0-1.8-0.3-2.3-0.8c-0.5-0.5-0.8-1.3-0.8-2.3L40,17.5z"/>
		<path class="st0" d="M54.6,17.5H56c0,1.2-0.3,2-0.8,2.6C54.7,20.7,54,21,52.9,21c-1.1,0-1.9-0.3-2.5-0.9c-0.6-0.6-0.9-1.7-0.9-3.3
			v-3.2c0-2.6,1.1-3.9,3.4-3.9c2,0,2.9,0.8,2.9,2.5l0,0.7h-1.4l0-0.4c0-1.1-0.5-1.6-1.6-1.6c-0.6,0-1,0.2-1.4,0.6
			c-0.4,0.4-0.5,1.2-0.5,2.4V17c0,1,0.1,1.7,0.4,2.1c0.3,0.5,0.8,0.7,1.5,0.7c0.5,0,1-0.2,1.3-0.6C54.5,18.8,54.6,18.2,54.6,17.5z"
			/>
	</g>
	<g>
		<path class="st0" d="M59.1,9.9h1.4v4.7h3.8V9.9h1.4v10.9h-1.4v-5h-3.8v5h-1.4V9.9z"/>
	</g>
	<g>
		<path class="st0" d="M69.2,9.9h1.4v7.1c0,1,0.2,1.8,0.5,2.2c0.3,0.4,0.8,0.6,1.5,0.6c0.7,0,1.2-0.2,1.5-0.6
			c0.3-0.4,0.5-1.2,0.5-2.2v-7H76v6.9c0,1.5-0.3,2.6-0.9,3.2c-0.6,0.7-1.4,1-2.5,1c-1.2,0-2-0.3-2.6-1c-0.6-0.7-0.8-1.7-0.8-3.2V9.9
			z"/>
	</g>
	<g>
		<path class="st0" d="M79.5,9.9h1.4v9.6h4v1.2h-5.4V9.9z"/>
	</g>
	<g>
		<path class="st0" d="M87.2,20.7V9.9h5.7v1.2h-4.2v3.4h3.9v1.2h-3.9v3.8H93v1.2H87.2z"/>
	</g>
	<g>
		<path class="st0" d="M0.4,35.8V25h5.4v1.2h-4v3.4h3.8v1.2H1.8v5H0.4z"/>
	</g>
	<g>
		<path class="st0" d="M7.6,25H9V32c0,1,0.2,1.8,0.5,2.2c0.3,0.4,0.8,0.6,1.5,0.6c0.7,0,1.2-0.2,1.5-0.6c0.3-0.4,0.5-1.2,0.5-2.2v-7
			h1.4v6.9c0,1.5-0.3,2.6-0.9,3.2c-0.6,0.7-1.4,1-2.5,1c-1.2,0-2-0.3-2.6-1c-0.6-0.7-0.8-1.7-0.8-3.2V25z"/>
	</g>
	<g>
		<path class="st0" d="M17.3,35.8V25H21c0.8,0,1.5,0.2,1.9,0.7c0.5,0.5,0.7,1.1,0.7,2c0,1.4-0.7,2.2-2,2.5c0.6,0.1,1,0.3,1.3,0.6
			c0.3,0.3,0.5,0.9,0.5,1.7c0,1.4,0.2,2.5,0.4,3.3h-1.4c-0.1-0.2-0.2-0.7-0.3-1.4c0-0.7-0.1-1.4-0.1-2.2c-0.1-0.9-0.6-1.4-1.6-1.4
			h-1.6v5H17.3z M18.7,29.6h2c0.5,0,0.8-0.2,1.1-0.5c0.3-0.3,0.4-0.8,0.4-1.3c0-0.4-0.1-0.8-0.4-1.2c-0.2-0.3-0.6-0.5-1.1-0.5h-2.1
			V29.6z"/>
	</g>
	<g>
		<path class="st0" d="M25.1,25h7.1v1.2h-2.8v9.6H28v-9.6h-2.8V25z"/>
	</g>
	<g>
		<path class="st0" d="M33,25h1.5l2.1,9.5h0l2.2-9.5h1.8l2,9.5h0l2.2-9.5h1.4l-2.8,10.9h-1.7l-2.1-9.4h0l-2.2,9.4h-1.7L33,25z"/>
	</g>
	<g>
		<path class="st0" d="M46.4,35.8L49.9,25h1.8l3.5,10.9h-1.6l-0.8-2.6v0h-4.2v0l-0.8,2.6H46.4z M49,32L49,32l3.4,0v0l-1.8-5.8h0
			L49,32z"/>
		<path class="st0" d="M57.2,25h2l4.3,9.4h0V25h1.2v10.9h-1.9l-4.3-9.5h0v9.5h-1.2V25z"/>
	</g>
	<g>
		<path class="st0" d="M70.8,31.2V30h3.4v5.3c-0.9,0.5-2,0.8-3.3,0.8c-1.1,0-2-0.3-2.6-1c-0.6-0.6-0.9-1.7-0.9-3.2v-3.5
			c0-2.4,1.2-3.6,3.5-3.6c2.2,0,3.3,0.9,3.3,2.7v0.4h-1.4c0-1.3-0.6-2-1.9-2c-0.7,0-1.2,0.2-1.6,0.7c-0.3,0.4-0.4,1-0.4,1.7v3.7
			c0,1.2,0.2,1.9,0.5,2.3c0.4,0.4,0.8,0.5,1.4,0.5c0.9,0,1.5-0.2,2-0.5v-3.2H70.8z"/>
	</g>
	<g>
		<path class="st0" d="M77.3,35.8V25H83v1.2h-4.2v3.4h3.9v1.2h-3.9v3.8H83v1.2H77.3z"/>
	</g>
	<g>
		<path class="st0" d="M85.4,25h2l4.3,9.4h0V25h1.2v10.9H91l-4.3-9.5h0v9.5h-1.2V25z"/>
	</g>
	<g>
		<path class="st0" d="M15.8,40.1h1.4v7.1c0,1,0.2,1.8,0.5,2.2c0.3,0.4,0.8,0.6,1.5,0.6c0.7,0,1.2-0.2,1.5-0.6
			c0.3-0.4,0.5-1.2,0.5-2.2v-7h1.4V47c0,1.5-0.3,2.6-0.9,3.2c-0.6,0.7-1.4,1-2.5,1c-1.2,0-2-0.3-2.6-1c-0.6-0.7-0.8-1.7-0.8-3.2
			V40.1z"/>
		<path class="st0" d="M25.6,40.1h2l4.3,9.4h0v-9.4h1.2V51h-1.9l-4.3-9.5h0V51h-1.2V40.1z"/>
		<path class="st0" d="M36.2,40.1h1.4V51h-1.4V40.1z"/>
	</g>
	<g>
		<path class="st0" d="M43.7,49.7L43.7,49.7l2.6-9.6h1.4L44.5,51h-1.7l-3.2-10.9h1.5L43.7,49.7z"/>
		<path class="st0" d="M49.5,51V40.1h5.7v1.2h-4.2v3.4h3.9V46h-3.9v3.8h4.3V51H49.5z"/>
	</g>
	<g>
		<path class="st0" d="M57.4,51V40.1h3.7c0.8,0,1.5,0.2,1.9,0.7c0.5,0.5,0.7,1.1,0.7,2c0,1.4-0.7,2.2-2,2.5c0.6,0.1,1,0.3,1.3,0.6
			c0.3,0.3,0.5,0.9,0.5,1.7c0,1.4,0.2,2.5,0.4,3.3h-1.4c-0.1-0.2-0.2-0.7-0.3-1.4c0-0.7-0.1-1.4-0.1-2.2c-0.1-0.9-0.6-1.4-1.6-1.4
			h-1.6v5H57.4z M58.9,44.8h2c0.5,0,0.8-0.2,1.1-0.5c0.3-0.3,0.4-0.8,0.4-1.3c0-0.4-0.1-0.8-0.4-1.2c-0.2-0.3-0.6-0.5-1.1-0.5h-2.1
			V44.8z"/>
		<path class="st0" d="M66,47.8l1.4,0l0,0.4c0,0.6,0.2,1,0.5,1.3c0.3,0.3,0.8,0.5,1.4,0.5c0.5,0,1-0.1,1.3-0.4
			c0.3-0.3,0.5-0.7,0.5-1.3c0-0.5-0.2-0.8-0.5-1.2c-0.3-0.3-0.9-0.7-1.8-1.1c-1-0.5-1.7-1-2.1-1.5c-0.4-0.5-0.5-1-0.5-1.7
			c0-0.9,0.3-1.6,0.8-2.1c0.6-0.5,1.4-0.8,2.4-0.8c1,0,1.8,0.2,2.3,0.7c0.5,0.5,0.8,1.2,0.8,2l0,0.4l-1.4,0h0c0-1.3-0.6-2-1.7-2
			c-0.5,0-1,0.1-1.3,0.4c-0.3,0.3-0.5,0.7-0.5,1.1c0,0.5,0.2,1,0.7,1.3c0.3,0.2,0.9,0.6,1.7,1c0.9,0.4,1.5,0.9,1.9,1.3
			c0.4,0.5,0.7,1.1,0.7,1.9c0,2-1.2,3-3.5,3c-1,0-1.8-0.3-2.3-0.8c-0.5-0.5-0.8-1.3-0.8-2.3L66,47.8z"/>
	</g>
	<g>
		<path class="st0" d="M75.3,40.1h1.4V51h-1.4V40.1z"/>
		<path class="st0" d="M78.8,40.1h7.1v1.2h-2.8V51h-1.4v-9.6h-2.8V40.1z"/>
	</g>
	<g>
		<path class="st0" d="M86.7,40.1h1.6l2.2,5.3h0l2.2-5.3H94l-2.9,6.7V51h-1.4v-4.2L86.7,40.1z"/>
	</g>
	<polygon class="st0" points="110,51.4 110,9.1 115.4,9.1 115.4,27.4 130.2,27.4 130.2,9.1 135.6,9.1 135.6,51.4 130.2,51.4 
		130.2,32.1 115.4,32.1 115.4,51.4 	"/>
	<polygon class="st0" points="143,51.4 143,9.1 164,9.1 164,13.8 148.4,13.8 148.4,27.4 163.1,27.4 163.1,32.1 148.4,32.1 
		148.4,51.4 	"/>
	<path class="st0" d="M168.4,9.1h5.4v27.1c0,9.3,2.8,11.6,7.9,11.6c5.1,0,7.9-2.3,7.9-11.6V9.1h5.4v26.8c0,11.7-4.3,16.3-13.3,16.3
		c-9,0-13.3-4.6-13.3-16.3V9.1z"/>
	<rect x="100.7" y="9.1" class="st0" width="0.8" height="42.4"/>
</g>
<path class="st1" d="M210.1,31.5c0,7.3,5.9,13.2,13.2,13.2c7.3,0,13.2-5.9,13.2-13.2c0-7.3-5.9-13.2-13.2-13.2
	C216,18.3,210.1,24.2,210.1,31.5"/>
<path class="st1" d="M283.8,66.4c-12.1,20.9-34.6,35-60.5,35c-25.8,0-48.3-14-60.4-34.8l11.4-6.6c9.8,16.9,28.1,28.2,49,28.2
	c21,0,39.3-11.4,49-28.3L283.8,66.4z"/>
<path class="st1" d="M272.6,18.3c1.1,4.2,1.7,8.6,1.7,13.2c0,28.2-22.8,51-50.9,51c-14.1,0-26.8-5.7-36-14.9l9.3-9.3
	c6.8,6.8,16.3,11.1,26.7,11.1c20.8,0,37.7-16.9,37.7-37.8c0-3.4-0.4-6.6-1.3-9.8L272.6,18.3z"/>
<path class="st1" d="M231.7,0.5c13.7,3.7,23.7,16.2,23.7,31c0,17.7-14.4,32.1-32.1,32.1c-2.9,0-5.6-0.4-8.3-1.1l3.4-12.8
	c1.6,0.4,3.2,0.6,4.9,0.6c10.4,0,18.9-8.5,18.9-18.9c0-8.7-5.9-16.1-13.9-18.2L231.7,0.5z"/>
</svg>
